<svg width="24" height="24" viewBox="0 0 24 24" fill="none" xmlns="http://www.w3.org/2000/svg">
<path d="M4.07486 3L5.51744 19.1952L11.9905 21L18.4815 19.1886L19.9253 3H4.07486ZM16.9284 6.71038L16.4482 12.1055L16.4496 12.1346L16.4476 12.2016V12.2011L16.1064 15.9734L16.0688 16.3086L12.0001 17.4339L11.9969 17.4368L7.93517 16.3051L7.66014 13.1863H9.65191L9.79323 14.7722L12.0006 15.3704L12.0001 15.3716V15.3713L14.2156 14.7646L14.4498 12.182H9.81819L9.77845 11.7454L9.68792 10.7226L9.64044 10.1734H14.6258L14.8072 8.16487H7.21395L7.17421 7.72858L7.08383 6.70551L7.03619 6.15631H16.9758L16.9284 6.71038Z" fill="#3996DB"/>
</svg>
