<svg width="24" height="24" viewBox="0 0 24 24" fill="none" xmlns="http://www.w3.org/2000/svg">
<path d="M2.25023 16.31L4.51385 14.9625C4.95051 15.7244 5.34804 16.3688 6.301 16.3688C7.21413 16.3688 7.79016 16.019 7.79016 14.6497V5.35113H10.5701V14.6882C10.5701 17.5204 8.88251 18.8099 6.42047 18.8099C5.55008 18.8563 4.68582 18.6422 3.94154 18.1958C3.19725 17.7494 2.60713 17.0924 2.25023 16.31ZM12.0806 16.0162L14.3442 14.7267C14.5959 15.229 14.9865 15.6513 15.4713 15.945C15.956 16.2387 16.5151 16.3919 17.0843 16.387C18.2364 16.387 18.9703 15.8203 18.9703 15.0387C18.9703 14.1012 18.2158 13.7688 16.9449 13.2196L16.2523 12.9299C14.2468 12.0903 12.9162 11.0352 12.9162 8.80819C12.9162 6.75677 14.5049 5.19441 16.9869 5.19441C17.7911 5.13706 18.5946 5.31396 19.2973 5.70304C20 6.09212 20.5706 6.67615 20.9381 7.38227L18.7733 8.75012C18.6312 8.3996 18.3843 8.09983 18.0651 7.89054C17.7459 7.68125 17.3697 7.57232 16.9862 7.57817C16.819 7.56153 16.6501 7.57937 16.4903 7.63054C16.3305 7.68172 16.1833 7.7651 16.0581 7.87538C15.9329 7.98565 15.8325 8.12039 15.7631 8.27101C15.6938 8.42162 15.6572 8.5848 15.6556 8.75012C15.6556 9.57083 16.1719 9.90247 17.3624 10.4104L18.0572 10.7036C20.4204 11.6999 21.7502 12.7158 21.7502 15.0009C21.7502 17.4624 19.7846 18.8106 17.144 18.8106C14.5625 18.8106 12.8949 17.5988 12.0806 16.0162Z" fill="#EABD5F"/>
</svg>
