<svg width="24" height="24" viewBox="0 0 24 24" fill="none" xmlns="http://www.w3.org/2000/svg">
<path d="M19.9457 6.57077L12.8344 2.44158C12.3859 2.18614 11.802 2.18614 11.3499 2.44158L4.16267 6.57077C3.69984 6.83702 3.37231 7.33743 3.37231 7.87267V16.1201C3.37231 16.6553 3.70839 17.1559 4.17122 17.4236L6.07012 18.5021C6.97772 18.9492 7.29847 18.9492 7.71147 18.9492C9.05529 18.9492 9.82291 18.1365 9.82291 16.7192V8.57691C9.82291 8.46193 9.76308 8.29082 9.6502 8.29082H8.74341C8.62858 8.29082 8.37153 8.46193 8.37153 8.57675V16.719C8.37153 17.3473 7.80323 17.9725 6.74114 17.4415L4.77903 16.3105C4.71065 16.2734 4.66243 16.1988 4.66243 16.1201V7.87267C4.66243 7.79494 4.75194 7.71688 4.8208 7.67705L11.9848 3.55496C12.0518 3.51706 12.1501 3.51706 12.2169 3.55496L19.2935 7.67608C19.3613 7.71688 19.3374 7.79252 19.3374 7.87267V16.1201C19.3374 16.1988 19.3669 16.2754 19.3 16.3133L12.1904 20.4378C12.1295 20.4744 12.0539 20.4744 11.9871 20.4378L10.1637 19.3494C10.1087 19.3175 10.0434 19.306 9.99063 19.3355C9.48329 19.6231 9.38976 19.6613 8.91386 19.8263C8.79678 19.8671 8.62407 19.9379 8.97998 20.1374L11.3664 21.5491C11.5942 21.6807 11.8527 21.75 12.1158 21.75C12.3806 21.75 12.6399 21.6813 12.8684 21.5491L19.9455 17.4236C20.4083 17.1539 20.6277 16.6553 20.6277 16.1201V7.87267C20.6277 7.33743 20.4083 6.83831 19.9457 6.57077ZM14.3238 14.8132C12.4328 14.8132 12.0163 14.2915 11.8774 13.3512C11.8613 13.2499 11.7753 13.1288 11.6723 13.1288H10.7481C10.6338 13.1288 10.5418 13.2675 10.5418 13.3813C10.5418 14.5853 11.1964 16.0441 14.324 16.0441C16.588 16.0441 17.886 15.1644 17.886 13.6076C17.886 12.0639 16.8431 11.6588 14.6475 11.3682C12.4281 11.0749 12.2027 10.9267 12.2027 10.4068C12.2027 9.97814 12.3936 9.40646 14.0369 9.40646C15.5052 9.40646 16.0465 9.72157 16.2692 10.7113C16.2882 10.8043 16.3732 10.8711 16.4691 10.8711H17.397C17.4541 10.8711 17.5086 10.848 17.5486 10.8072C17.5873 10.7633 17.6078 10.7083 17.6027 10.6493C17.459 8.94508 16.3267 8.15085 14.0368 8.15085C11.9998 8.15085 10.7847 9.01103 10.7847 10.4529C10.7847 12.0169 11.9937 12.449 13.949 12.6424C16.2882 12.8717 16.4701 13.2136 16.4701 13.6737C16.4701 14.4728 15.8286 14.8132 14.3238 14.8132Z" fill="#82BC4F"/>
</svg>
