<svg width="24" height="24" viewBox="0 0 24 24" fill="none" xmlns="http://www.w3.org/2000/svg">
<path d="M12.561 18.9433C12.3877 18.7901 12.2068 18.6363 12.0341 18.4659C11.896 18.5936 11.7666 18.7132 11.6296 18.8322C9.92 20.306 8.15779 20.9196 7.11318 20.3231C6.10265 19.7523 5.7843 18.066 6.18874 15.9445C6.23188 15.7145 6.28369 15.4846 6.34416 15.2546C6.16274 15.2012 5.98999 15.1521 5.81723 15.0944C3.66618 14.3602 2.25006 13.1678 2.25006 11.9749C2.25006 10.8253 3.57143 9.70926 5.63523 8.99373C5.86634 8.91684 6.11016 8.84048 6.36092 8.77213C6.30314 8.55053 6.25749 8.33747 6.21416 8.13136C5.78199 5.97783 6.08416 4.25736 7.10335 3.678C8.1653 3.06446 9.92751 3.72072 11.6972 5.26231C11.8006 5.35575 11.9046 5.45827 12.0167 5.56026C12.1808 5.40701 12.3362 5.25376 12.5003 5.1176C14.1759 3.67586 15.8422 3.073 16.8614 3.65237C17.9233 4.24829 18.2347 6.08837 17.7598 8.3631C17.7338 8.50835 17.702 8.64451 17.665 8.79029C17.8811 8.85009 18.0966 8.91791 18.2954 8.98626C20.4025 9.70178 21.7672 10.8178 21.7499 11.9931C21.7499 13.194 20.2904 14.3783 18.0522 15.111C17.9314 15.1451 17.8106 15.1879 17.6893 15.2215C17.7413 15.3918 17.7754 15.5622 17.8101 15.7325C18.259 17.9389 17.9135 19.7448 16.8689 20.3413C16.5945 20.4939 16.279 20.5717 15.9589 20.5655C15.0015 20.5639 13.7859 19.9814 12.561 18.9433ZM14.2539 15.8169C13.7578 16.5301 13.2126 17.213 12.6217 17.8615C12.7858 18.0217 12.9498 18.1685 13.1139 18.3047C14.5387 19.5141 15.8514 19.9659 16.465 19.6167C16.6524 19.4675 16.8055 19.2851 16.9153 19.0803C17.025 18.8755 17.0892 18.6524 17.104 18.4243C17.2287 17.5789 17.1935 16.72 17 15.8858C16.974 15.7325 16.9422 15.5793 16.8966 15.4175C16.0265 15.6057 15.1435 15.7391 14.2539 15.8169ZM7.01669 16.0897C6.66309 17.9053 6.92193 19.2584 7.53668 19.6081C7.75448 19.6922 7.98963 19.7311 8.22547 19.7218C8.4613 19.7126 8.69206 19.6555 8.90138 19.5547C9.71571 19.2384 10.4573 18.7815 11.0865 18.2086C11.2159 18.106 11.3367 17.987 11.4667 17.8679C10.8627 17.2192 10.3031 16.5363 9.79115 15.8233C8.90487 15.7549 8.02475 15.63 7.15709 15.4495C7.10335 15.6722 7.06002 15.8847 7.01669 16.0897ZM12.0433 17.2821C12.4235 16.8645 12.8031 16.4048 13.1833 15.8938C12.8031 15.9109 12.4062 15.9194 12.0086 15.9194C11.6111 15.9194 11.2402 15.9109 10.8687 15.8938C11.257 16.3957 11.6464 16.8645 12.0433 17.2821ZM10.2291 8.9681C9.90093 9.4364 9.58142 9.92926 9.27925 10.4504C8.97707 10.9614 8.70147 11.481 8.45014 11.9989C8.70956 12.51 8.98574 13.0295 9.28791 13.5582C9.59009 14.0692 9.9096 14.5727 10.2378 15.0485C10.8075 15.0827 11.4037 15.1019 12.0081 15.1019C12.6124 15.1019 13.2168 15.0848 13.7957 15.0426C14.1065 14.5743 14.426 14.0713 14.7288 13.5518C15.0316 13.0322 15.3158 12.5041 15.5666 11.9931C15.3158 11.4906 15.031 10.971 14.7288 10.451C14.4266 9.93086 14.1071 9.4364 13.7876 8.96863C13.2098 8.92592 12.613 8.90029 12.0086 8.90029C11.4043 8.90029 10.808 8.92538 10.2291 8.9681ZM7.37953 14.6667C7.97206 14.7918 8.57179 14.8857 9.17583 14.9481C8.96841 14.6245 8.76156 14.3004 8.56281 13.9597C8.37272 13.6276 8.18263 13.2954 8.00988 12.9633C7.7597 13.5421 7.55228 14.114 7.37953 14.6667ZM15.4539 13.9512C15.2552 14.2918 15.0564 14.6154 14.8582 14.931C15.4713 14.86 16.0797 14.7577 16.6805 14.6245C16.4929 14.0495 16.2738 13.4836 16.0242 12.9291C15.8427 13.2698 15.6527 13.6105 15.4539 13.9512ZM5.90274 9.77707C4.14111 10.3906 3.07917 11.284 3.07917 11.9835C3.11275 12.2085 3.19409 12.4252 3.31853 12.6211C3.44296 12.817 3.60803 12.9883 3.80427 13.1251C4.47829 13.6489 5.25122 14.0532 6.08416 14.3175C6.23958 14.3709 6.40367 14.4115 6.56776 14.4627C6.83303 13.6248 7.15313 12.8026 7.52628 12.0006C7.15241 11.2123 6.83511 10.4021 6.57643 9.57523C6.34339 9.6329 6.11883 9.70018 5.90274 9.77707ZM16.4991 11.9835C16.8823 12.7753 17.2104 13.589 17.4813 14.4195C17.594 14.3853 17.7061 14.3511 17.8095 14.3169C19.7352 13.6868 20.9295 12.7241 20.9358 11.9744C20.9358 11.2759 19.8305 10.3725 18.0256 9.75945C17.8442 9.70018 17.646 9.64038 17.4478 9.58057C17.1862 10.3991 16.8693 11.2016 16.4991 11.9835ZM15.4458 10.0243C15.6446 10.365 15.8347 10.6976 16.0068 11.0298C16.2468 10.487 16.4543 9.9324 16.6285 9.36858C16.0419 9.23686 15.4481 9.13454 14.8496 9.06208C15.057 9.37659 15.2557 9.69217 15.4458 10.0243ZM7.3882 9.36164C7.56153 9.90683 7.76837 10.4606 8.00988 11.0308C8.18321 10.6987 8.37272 10.3666 8.56281 10.0345C8.7529 9.70232 8.95107 9.37873 9.15849 9.06315C8.53681 9.13844 7.94979 9.24043 7.3882 9.36164ZM13.0446 5.74128C12.8978 5.8689 12.7511 6.00507 12.6038 6.14176C13.2034 6.78226 13.7546 7.46024 14.2533 8.17087C15.1321 8.24928 16.0037 8.38597 16.8614 8.5799C16.896 8.45228 16.9191 8.32412 16.948 8.1965C17.3525 6.23735 17.1034 4.73794 16.4471 4.36362C16.303 4.28889 16.1396 4.25196 15.9745 4.25683C15.269 4.25362 14.1863 4.76144 13.0446 5.73968V5.74128ZM7.51762 4.38498C6.9046 4.7342 6.66251 6.13108 7.02535 7.97117C7.06869 8.16714 7.11202 8.36257 7.16344 8.56708C8.02223 8.38029 8.89351 8.2465 9.77151 8.1666C10.272 7.45508 10.8261 6.77703 11.4297 6.13749C11.335 6.04351 11.231 5.95861 11.1362 5.87317C9.93444 4.82284 8.7789 4.26858 8.02432 4.26858C7.84699 4.26299 7.67148 4.3033 7.51762 4.38498ZM13.1653 8.09879C12.8092 7.62254 12.425 7.16477 12.0144 6.72754C11.6262 7.14457 11.2373 7.60486 10.8589 8.09879C11.2391 8.0817 11.6186 8.07316 12.0075 8.07316C12.3963 8.07316 12.7852 8.0801 13.1653 8.09879ZM10.2811 12.0176C10.273 11.7987 10.3117 11.5804 10.3951 11.3754C10.4784 11.1703 10.6047 10.9824 10.7668 10.8226C10.9288 10.6627 11.1234 10.5339 11.3394 10.4437C11.5554 10.3534 11.7885 10.3035 12.0254 10.2966C12.5034 10.3117 12.9555 10.5013 13.2825 10.8239C13.6094 11.1465 13.7847 11.5758 13.7697 12.0176C13.7851 12.4598 13.61 12.8896 13.2829 13.2126C12.9557 13.5356 12.5033 13.7253 12.0248 13.7402C11.7878 13.7334 11.5545 13.6834 11.3385 13.593C11.1224 13.5027 10.9278 13.3738 10.7658 13.2137C10.6037 13.0537 10.4775 12.8656 10.3944 12.6604C10.3112 12.4551 10.2727 12.2367 10.2811 12.0176Z" fill="#3996DB"/>
</svg>
